<mxfile host="Electron" modified="2024-05-04T17:10:10.979Z" agent="Mozilla/5.0 (Windows NT 10.0; Win64; x64) AppleWebKit/537.36 (KHTML, like Gecko) draw.io/21.8.2 Chrome/114.0.5735.289 Electron/25.8.1 Safari/537.36" etag="SC5GJwfpIYSXUMUy839x" version="21.8.2" type="device">
  <diagram name="Page-1" id="CMNAbyIfZospv8cuNg1a">
    <mxGraphModel dx="2600" dy="591" grid="1" gridSize="10" guides="1" tooltips="1" connect="1" arrows="1" fold="1" page="0" pageScale="1" pageWidth="850" pageHeight="1100" math="0" shadow="0">
      <root>
        <mxCell id="0" />
        <mxCell id="1" parent="0" />
        <mxCell id="BTnDJMna1HMqzvdBmYv4-1" style="edgeStyle=orthogonalEdgeStyle;rounded=0;orthogonalLoop=1;jettySize=auto;html=1;exitX=1;exitY=0.25;exitDx=0;exitDy=0;entryX=0;entryY=0.5;entryDx=0;entryDy=0;" parent="1" source="BTnDJMna1HMqzvdBmYv4-9" target="BTnDJMna1HMqzvdBmYv4-21" edge="1">
          <mxGeometry relative="1" as="geometry">
            <mxPoint x="-510" y="977.9230769230769" as="targetPoint" />
            <Array as="points">
              <mxPoint x="-645" y="976" />
              <mxPoint x="-645" y="770" />
            </Array>
          </mxGeometry>
        </mxCell>
        <mxCell id="BTnDJMna1HMqzvdBmYv4-2" value="x_train" style="edgeLabel;html=1;align=center;verticalAlign=middle;resizable=0;points=[];" parent="BTnDJMna1HMqzvdBmYv4-1" vertex="1" connectable="0">
          <mxGeometry x="-0.0478" relative="1" as="geometry">
            <mxPoint as="offset" />
          </mxGeometry>
        </mxCell>
        <mxCell id="BTnDJMna1HMqzvdBmYv4-5" style="edgeStyle=orthogonalEdgeStyle;rounded=0;orthogonalLoop=1;jettySize=auto;html=1;exitX=1;exitY=0.75;exitDx=0;exitDy=0;entryX=1;entryY=0.5;entryDx=0;entryDy=0;" parent="1" source="BTnDJMna1HMqzvdBmYv4-9" target="BTnDJMna1HMqzvdBmYv4-16" edge="1">
          <mxGeometry relative="1" as="geometry">
            <mxPoint x="-510" y="1006" as="targetPoint" />
          </mxGeometry>
        </mxCell>
        <mxCell id="BTnDJMna1HMqzvdBmYv4-6" value="y_train" style="edgeLabel;html=1;align=center;verticalAlign=middle;resizable=0;points=[];" parent="BTnDJMna1HMqzvdBmYv4-5" vertex="1" connectable="0">
          <mxGeometry x="-0.1993" y="1" relative="1" as="geometry">
            <mxPoint as="offset" />
          </mxGeometry>
        </mxCell>
        <mxCell id="BTnDJMna1HMqzvdBmYv4-9" value="Load Keras Dataset" style="rounded=0;whiteSpace=wrap;html=1;fillColor=#f0a30a;fontColor=#000000;strokeColor=#BD7000;" parent="1" vertex="1">
          <mxGeometry x="-860" y="962" width="120" height="56" as="geometry" />
        </mxCell>
        <mxCell id="BTnDJMna1HMqzvdBmYv4-18" value="MNIST Data Loader" style="swimlane;whiteSpace=wrap;html=1;fillColor=#a20025;fontColor=#ffffff;strokeColor=#6F0000;" parent="1" vertex="1">
          <mxGeometry x="-880" y="630" width="1330" height="430" as="geometry" />
        </mxCell>
        <mxCell id="BTnDJMna1HMqzvdBmYv4-16" value="y_train" style="triangle;whiteSpace=wrap;html=1;direction=west;align=right;fillColor=#0050ef;fontColor=#ffffff;strokeColor=#001DBC;" parent="BTnDJMna1HMqzvdBmYv4-18" vertex="1">
          <mxGeometry x="1010" y="280" width="60" height="80" as="geometry" />
        </mxCell>
        <mxCell id="BTnDJMna1HMqzvdBmYv4-11" value="Divide By" style="rounded=0;whiteSpace=wrap;html=1;fillColor=#f0a30a;fontColor=#000000;strokeColor=#BD7000;" parent="BTnDJMna1HMqzvdBmYv4-18" vertex="1">
          <mxGeometry x="820" y="70" width="120" height="60" as="geometry" />
        </mxCell>
        <mxCell id="BTnDJMna1HMqzvdBmYv4-10" style="edgeStyle=orthogonalEdgeStyle;rounded=0;orthogonalLoop=1;jettySize=auto;html=1;exitX=1;exitY=0.5;exitDx=0;exitDy=0;entryX=0;entryY=0.5;entryDx=0;entryDy=0;" parent="BTnDJMna1HMqzvdBmYv4-18" source="BTnDJMna1HMqzvdBmYv4-11" target="BTnDJMna1HMqzvdBmYv4-31" edge="1">
          <mxGeometry relative="1" as="geometry">
            <mxPoint x="970" y="100" as="targetPoint" />
          </mxGeometry>
        </mxCell>
        <mxCell id="BTnDJMna1HMqzvdBmYv4-20" style="edgeStyle=orthogonalEdgeStyle;rounded=0;orthogonalLoop=1;jettySize=auto;html=1;exitX=1;exitY=0.5;exitDx=0;exitDy=0;entryX=0;entryY=0.5;entryDx=0;entryDy=0;" parent="BTnDJMna1HMqzvdBmYv4-18" source="BTnDJMna1HMqzvdBmYv4-19" target="BTnDJMna1HMqzvdBmYv4-11" edge="1">
          <mxGeometry relative="1" as="geometry" />
        </mxCell>
        <mxCell id="BTnDJMna1HMqzvdBmYv4-19" value="Subtract" style="rounded=0;whiteSpace=wrap;html=1;fillColor=#f0a30a;fontColor=#000000;strokeColor=#BD7000;" parent="BTnDJMna1HMqzvdBmYv4-18" vertex="1">
          <mxGeometry x="660" y="70" width="120" height="60" as="geometry" />
        </mxCell>
        <mxCell id="BTnDJMna1HMqzvdBmYv4-23" style="edgeStyle=orthogonalEdgeStyle;rounded=0;orthogonalLoop=1;jettySize=auto;html=1;exitX=1;exitY=0.5;exitDx=0;exitDy=0;entryX=0;entryY=0.5;entryDx=0;entryDy=0;" parent="BTnDJMna1HMqzvdBmYv4-18" source="BTnDJMna1HMqzvdBmYv4-21" target="BTnDJMna1HMqzvdBmYv4-22" edge="1">
          <mxGeometry relative="1" as="geometry" />
        </mxCell>
        <mxCell id="BTnDJMna1HMqzvdBmYv4-21" value="Reshape To" style="rounded=0;whiteSpace=wrap;html=1;fillColor=#f0a30a;fontColor=#000000;strokeColor=#BD7000;" parent="BTnDJMna1HMqzvdBmYv4-18" vertex="1">
          <mxGeometry x="330" y="110" width="120" height="60" as="geometry" />
        </mxCell>
        <mxCell id="BTnDJMna1HMqzvdBmYv4-24" style="edgeStyle=orthogonalEdgeStyle;rounded=0;orthogonalLoop=1;jettySize=auto;html=1;exitX=1;exitY=0.5;exitDx=0;exitDy=0;entryX=0;entryY=0.5;entryDx=0;entryDy=0;" parent="BTnDJMna1HMqzvdBmYv4-18" source="BTnDJMna1HMqzvdBmYv4-22" target="BTnDJMna1HMqzvdBmYv4-19" edge="1">
          <mxGeometry relative="1" as="geometry" />
        </mxCell>
        <mxCell id="BTnDJMna1HMqzvdBmYv4-22" value="Typecase To" style="rounded=0;whiteSpace=wrap;html=1;fillColor=#f0a30a;fontColor=#000000;strokeColor=#BD7000;" parent="BTnDJMna1HMqzvdBmYv4-18" vertex="1">
          <mxGeometry x="500" y="90" width="120" height="60" as="geometry" />
        </mxCell>
        <mxCell id="BTnDJMna1HMqzvdBmYv4-34" style="edgeStyle=orthogonalEdgeStyle;rounded=0;orthogonalLoop=1;jettySize=auto;html=1;exitX=1;exitY=0.5;exitDx=0;exitDy=0;entryX=0;entryY=0.5;entryDx=0;entryDy=0;" parent="BTnDJMna1HMqzvdBmYv4-18" source="BTnDJMna1HMqzvdBmYv4-31" target="BTnDJMna1HMqzvdBmYv4-32" edge="1">
          <mxGeometry relative="1" as="geometry" />
        </mxCell>
        <mxCell id="BTnDJMna1HMqzvdBmYv4-31" value="Create Dataset From Numpy Array" style="rounded=0;whiteSpace=wrap;html=1;fillColor=#f0a30a;fontColor=#000000;strokeColor=#BD7000;" parent="BTnDJMna1HMqzvdBmYv4-18" vertex="1">
          <mxGeometry x="1000" y="70" width="120" height="60" as="geometry" />
        </mxCell>
        <mxCell id="BTnDJMna1HMqzvdBmYv4-35" style="edgeStyle=orthogonalEdgeStyle;rounded=0;orthogonalLoop=1;jettySize=auto;html=1;exitX=1;exitY=0.5;exitDx=0;exitDy=0;entryX=0;entryY=0.5;entryDx=0;entryDy=0;" parent="BTnDJMna1HMqzvdBmYv4-18" source="BTnDJMna1HMqzvdBmYv4-32" target="BTnDJMna1HMqzvdBmYv4-33" edge="1">
          <mxGeometry relative="1" as="geometry" />
        </mxCell>
        <mxCell id="BTnDJMna1HMqzvdBmYv4-32" value="Shuffle" style="rounded=0;whiteSpace=wrap;html=1;fillColor=#f0a30a;fontColor=#000000;strokeColor=#BD7000;" parent="BTnDJMna1HMqzvdBmYv4-18" vertex="1">
          <mxGeometry x="1150" y="70" width="120" height="60" as="geometry" />
        </mxCell>
        <mxCell id="BTnDJMna1HMqzvdBmYv4-37" style="edgeStyle=orthogonalEdgeStyle;rounded=0;orthogonalLoop=1;jettySize=auto;html=1;exitX=1;exitY=0.5;exitDx=0;exitDy=0;entryX=1;entryY=0.5;entryDx=0;entryDy=0;" parent="BTnDJMna1HMqzvdBmYv4-18" source="BTnDJMna1HMqzvdBmYv4-33" target="BTnDJMna1HMqzvdBmYv4-36" edge="1">
          <mxGeometry relative="1" as="geometry" />
        </mxCell>
        <mxCell id="BTnDJMna1HMqzvdBmYv4-33" value="Batch" style="rounded=0;whiteSpace=wrap;html=1;fillColor=#f0a30a;fontColor=#000000;strokeColor=#BD7000;" parent="BTnDJMna1HMqzvdBmYv4-18" vertex="1">
          <mxGeometry x="820" y="170" width="120" height="60" as="geometry" />
        </mxCell>
        <mxCell id="BTnDJMna1HMqzvdBmYv4-36" value="train dataset" style="triangle;whiteSpace=wrap;html=1;direction=west;align=right;fillColor=#0050ef;fontColor=#ffffff;strokeColor=#001DBC;" parent="BTnDJMna1HMqzvdBmYv4-18" vertex="1">
          <mxGeometry x="1010" y="180" width="60" height="80" as="geometry" />
        </mxCell>
        <mxCell id="BTnDJMna1HMqzvdBmYv4-105" style="edgeStyle=orthogonalEdgeStyle;rounded=0;orthogonalLoop=1;jettySize=auto;html=1;exitX=0;exitY=0.5;exitDx=0;exitDy=0;exitPerimeter=0;entryX=0;entryY=0.75;entryDx=0;entryDy=0;" parent="BTnDJMna1HMqzvdBmYv4-18" source="BTnDJMna1HMqzvdBmYv4-104" target="BTnDJMna1HMqzvdBmYv4-33" edge="1">
          <mxGeometry relative="1" as="geometry" />
        </mxCell>
        <mxCell id="BTnDJMna1HMqzvdBmYv4-104" value="BATCH_SIZE" style="shape=display;whiteSpace=wrap;html=1;fillColor=#647687;strokeColor=#314354;fontColor=#ffffff;size=0.2727272727272727;direction=west;" parent="BTnDJMna1HMqzvdBmYv4-18" vertex="1">
          <mxGeometry x="640" y="185" width="140" height="50" as="geometry" />
        </mxCell>
        <mxCell id="BTnDJMna1HMqzvdBmYv4-111" value="BATCH_SIZE" style="shape=display;whiteSpace=wrap;html=1;fillColor=#647687;strokeColor=#314354;fontColor=#ffffff;size=0.2727272727272727;" parent="BTnDJMna1HMqzvdBmYv4-18" vertex="1">
          <mxGeometry x="190" y="50" width="140" height="50" as="geometry" />
        </mxCell>
        <mxCell id="BTnDJMna1HMqzvdBmYv4-112" value="Constants" style="rounded=0;whiteSpace=wrap;html=1;fillColor=#f0a30a;fontColor=#000000;strokeColor=#BD7000;" parent="BTnDJMna1HMqzvdBmYv4-18" vertex="1">
          <mxGeometry x="10" y="50" width="120" height="60" as="geometry" />
        </mxCell>
        <mxCell id="BTnDJMna1HMqzvdBmYv4-113" style="edgeStyle=orthogonalEdgeStyle;rounded=0;orthogonalLoop=1;jettySize=auto;html=1;exitX=1;exitY=0.5;exitDx=0;exitDy=0;entryX=0;entryY=0.5;entryDx=0;entryDy=0;entryPerimeter=0;" parent="BTnDJMna1HMqzvdBmYv4-18" source="BTnDJMna1HMqzvdBmYv4-112" target="BTnDJMna1HMqzvdBmYv4-111" edge="1">
          <mxGeometry relative="1" as="geometry" />
        </mxCell>
        <mxCell id="BTnDJMna1HMqzvdBmYv4-58" value="Generator Model" style="swimlane;whiteSpace=wrap;html=1;fillColor=#a20025;fontColor=#ffffff;strokeColor=#6F0000;" parent="1" vertex="1">
          <mxGeometry x="-880" y="1110" width="200" height="200" as="geometry" />
        </mxCell>
        <mxCell id="BTnDJMna1HMqzvdBmYv4-60" value="Discriminator Model" style="swimlane;whiteSpace=wrap;html=1;fillColor=#a20025;fontColor=#ffffff;strokeColor=#6F0000;" parent="1" vertex="1">
          <mxGeometry x="-640" y="1110" width="200" height="200" as="geometry" />
        </mxCell>
        <mxCell id="BTnDJMna1HMqzvdBmYv4-64" style="edgeStyle=orthogonalEdgeStyle;rounded=0;orthogonalLoop=1;jettySize=auto;html=1;exitX=1;exitY=0.5;exitDx=0;exitDy=0;" parent="1" source="BTnDJMna1HMqzvdBmYv4-61" target="BTnDJMna1HMqzvdBmYv4-63" edge="1">
          <mxGeometry relative="1" as="geometry" />
        </mxCell>
        <mxCell id="BTnDJMna1HMqzvdBmYv4-68" style="edgeStyle=orthogonalEdgeStyle;rounded=0;orthogonalLoop=1;jettySize=auto;html=1;exitX=1;exitY=0.5;exitDx=0;exitDy=0;entryX=0;entryY=0.75;entryDx=0;entryDy=0;" parent="1" source="BTnDJMna1HMqzvdBmYv4-61" target="BTnDJMna1HMqzvdBmYv4-67" edge="1">
          <mxGeometry relative="1" as="geometry" />
        </mxCell>
        <mxCell id="BTnDJMna1HMqzvdBmYv4-61" value="Real Output" style="triangle;whiteSpace=wrap;html=1;align=left;fillColor=#0050ef;fontColor=#ffffff;strokeColor=#001DBC;" parent="1" vertex="1">
          <mxGeometry x="-270" y="1174" width="60" height="80" as="geometry" />
        </mxCell>
        <mxCell id="BTnDJMna1HMqzvdBmYv4-66" style="edgeStyle=orthogonalEdgeStyle;rounded=0;orthogonalLoop=1;jettySize=auto;html=1;exitX=1;exitY=0.5;exitDx=0;exitDy=0;entryX=0;entryY=0.5;entryDx=0;entryDy=0;" parent="1" source="BTnDJMna1HMqzvdBmYv4-62" target="BTnDJMna1HMqzvdBmYv4-65" edge="1">
          <mxGeometry relative="1" as="geometry" />
        </mxCell>
        <mxCell id="BTnDJMna1HMqzvdBmYv4-72" style="edgeStyle=orthogonalEdgeStyle;rounded=0;orthogonalLoop=1;jettySize=auto;html=1;exitX=1;exitY=0.5;exitDx=0;exitDy=0;entryX=0;entryY=0.75;entryDx=0;entryDy=0;" parent="1" source="BTnDJMna1HMqzvdBmYv4-62" target="BTnDJMna1HMqzvdBmYv4-70" edge="1">
          <mxGeometry relative="1" as="geometry" />
        </mxCell>
        <mxCell id="BTnDJMna1HMqzvdBmYv4-62" value="Fake Output" style="triangle;whiteSpace=wrap;html=1;align=left;fillColor=#0050ef;fontColor=#ffffff;strokeColor=#001DBC;" parent="1" vertex="1">
          <mxGeometry x="-270" y="1274" width="60" height="80" as="geometry" />
        </mxCell>
        <mxCell id="BTnDJMna1HMqzvdBmYv4-69" style="edgeStyle=orthogonalEdgeStyle;rounded=0;orthogonalLoop=1;jettySize=auto;html=1;exitX=1;exitY=0.5;exitDx=0;exitDy=0;entryX=0;entryY=0.25;entryDx=0;entryDy=0;" parent="1" source="BTnDJMna1HMqzvdBmYv4-63" target="BTnDJMna1HMqzvdBmYv4-67" edge="1">
          <mxGeometry relative="1" as="geometry" />
        </mxCell>
        <mxCell id="BTnDJMna1HMqzvdBmYv4-63" value="Get Ones Like Tensor" style="rounded=0;whiteSpace=wrap;html=1;fillColor=#f0a30a;fontColor=#000000;strokeColor=#BD7000;" parent="1" vertex="1">
          <mxGeometry x="-140" y="1144" width="120" height="60" as="geometry" />
        </mxCell>
        <mxCell id="BTnDJMna1HMqzvdBmYv4-71" style="edgeStyle=orthogonalEdgeStyle;rounded=0;orthogonalLoop=1;jettySize=auto;html=1;exitX=1;exitY=0.5;exitDx=0;exitDy=0;entryX=0;entryY=0.25;entryDx=0;entryDy=0;" parent="1" source="BTnDJMna1HMqzvdBmYv4-65" target="BTnDJMna1HMqzvdBmYv4-70" edge="1">
          <mxGeometry relative="1" as="geometry" />
        </mxCell>
        <mxCell id="BTnDJMna1HMqzvdBmYv4-65" value="Get Zeroes Like Tensor" style="rounded=0;whiteSpace=wrap;html=1;fillColor=#f0a30a;fontColor=#000000;strokeColor=#BD7000;" parent="1" vertex="1">
          <mxGeometry x="-160" y="1244" width="120" height="60" as="geometry" />
        </mxCell>
        <mxCell id="BTnDJMna1HMqzvdBmYv4-74" style="edgeStyle=orthogonalEdgeStyle;rounded=0;orthogonalLoop=1;jettySize=auto;html=1;exitX=1;exitY=0.5;exitDx=0;exitDy=0;entryX=0;entryY=0.25;entryDx=0;entryDy=0;" parent="1" source="BTnDJMna1HMqzvdBmYv4-67" target="BTnDJMna1HMqzvdBmYv4-73" edge="1">
          <mxGeometry relative="1" as="geometry" />
        </mxCell>
        <mxCell id="BTnDJMna1HMqzvdBmYv4-67" value="Get Binary Cross Entropy" style="rounded=0;whiteSpace=wrap;html=1;fillColor=#f0a30a;fontColor=#000000;strokeColor=#BD7000;" parent="1" vertex="1">
          <mxGeometry x="30" y="1174" width="120" height="60" as="geometry" />
        </mxCell>
        <mxCell id="BTnDJMna1HMqzvdBmYv4-75" style="edgeStyle=orthogonalEdgeStyle;rounded=0;orthogonalLoop=1;jettySize=auto;html=1;exitX=1;exitY=0.5;exitDx=0;exitDy=0;entryX=0;entryY=0.75;entryDx=0;entryDy=0;" parent="1" source="BTnDJMna1HMqzvdBmYv4-70" target="BTnDJMna1HMqzvdBmYv4-73" edge="1">
          <mxGeometry relative="1" as="geometry" />
        </mxCell>
        <mxCell id="BTnDJMna1HMqzvdBmYv4-70" value="Get Binary Cross Entropy" style="rounded=0;whiteSpace=wrap;html=1;fillColor=#f0a30a;fontColor=#000000;strokeColor=#BD7000;" parent="1" vertex="1">
          <mxGeometry x="40" y="1264" width="120" height="60" as="geometry" />
        </mxCell>
        <mxCell id="BTnDJMna1HMqzvdBmYv4-77" style="edgeStyle=orthogonalEdgeStyle;rounded=0;orthogonalLoop=1;jettySize=auto;html=1;exitX=1;exitY=0.5;exitDx=0;exitDy=0;entryX=1;entryY=0.5;entryDx=0;entryDy=0;" parent="1" source="BTnDJMna1HMqzvdBmYv4-73" target="BTnDJMna1HMqzvdBmYv4-76" edge="1">
          <mxGeometry relative="1" as="geometry" />
        </mxCell>
        <mxCell id="BTnDJMna1HMqzvdBmYv4-73" value="Add" style="rounded=0;whiteSpace=wrap;html=1;fillColor=#f0a30a;fontColor=#000000;strokeColor=#BD7000;" parent="1" vertex="1">
          <mxGeometry x="210" y="1214" width="120" height="60" as="geometry" />
        </mxCell>
        <mxCell id="BTnDJMna1HMqzvdBmYv4-76" value="loss" style="triangle;whiteSpace=wrap;html=1;direction=west;align=right;fillColor=#0050ef;fontColor=#ffffff;strokeColor=#001DBC;" parent="1" vertex="1">
          <mxGeometry x="380" y="1204" width="60" height="80" as="geometry" />
        </mxCell>
        <mxCell id="BTnDJMna1HMqzvdBmYv4-78" value="Discriminator Loss" style="swimlane;whiteSpace=wrap;html=1;fillColor=#a20025;fontColor=#ffffff;strokeColor=#6F0000;" parent="1" vertex="1">
          <mxGeometry x="-310" y="1100" width="790" height="280" as="geometry" />
        </mxCell>
        <mxCell id="BTnDJMna1HMqzvdBmYv4-82" style="edgeStyle=orthogonalEdgeStyle;rounded=0;orthogonalLoop=1;jettySize=auto;html=1;exitX=1;exitY=0.5;exitDx=0;exitDy=0;entryX=0;entryY=0.5;entryDx=0;entryDy=0;" parent="1" source="BTnDJMna1HMqzvdBmYv4-84" target="BTnDJMna1HMqzvdBmYv4-88" edge="1">
          <mxGeometry relative="1" as="geometry" />
        </mxCell>
        <mxCell id="BTnDJMna1HMqzvdBmYv4-83" style="edgeStyle=orthogonalEdgeStyle;rounded=0;orthogonalLoop=1;jettySize=auto;html=1;exitX=1;exitY=0.5;exitDx=0;exitDy=0;entryX=0;entryY=0.75;entryDx=0;entryDy=0;" parent="1" source="BTnDJMna1HMqzvdBmYv4-84" target="BTnDJMna1HMqzvdBmYv4-92" edge="1">
          <mxGeometry relative="1" as="geometry" />
        </mxCell>
        <mxCell id="BTnDJMna1HMqzvdBmYv4-84" value="Fake Output" style="triangle;whiteSpace=wrap;html=1;align=left;fillColor=#0050ef;fontColor=#ffffff;strokeColor=#001DBC;" parent="1" vertex="1">
          <mxGeometry x="-290" y="1474" width="60" height="80" as="geometry" />
        </mxCell>
        <mxCell id="BTnDJMna1HMqzvdBmYv4-87" style="edgeStyle=orthogonalEdgeStyle;rounded=0;orthogonalLoop=1;jettySize=auto;html=1;exitX=1;exitY=0.5;exitDx=0;exitDy=0;entryX=0;entryY=0.25;entryDx=0;entryDy=0;" parent="1" source="BTnDJMna1HMqzvdBmYv4-88" target="BTnDJMna1HMqzvdBmYv4-92" edge="1">
          <mxGeometry relative="1" as="geometry" />
        </mxCell>
        <mxCell id="BTnDJMna1HMqzvdBmYv4-88" value="Get Ones Like Tensor" style="rounded=0;whiteSpace=wrap;html=1;fillColor=#f0a30a;fontColor=#000000;strokeColor=#BD7000;" parent="1" vertex="1">
          <mxGeometry x="-180" y="1444" width="120" height="60" as="geometry" />
        </mxCell>
        <mxCell id="BTnDJMna1HMqzvdBmYv4-97" style="edgeStyle=orthogonalEdgeStyle;rounded=0;orthogonalLoop=1;jettySize=auto;html=1;exitX=1;exitY=0.5;exitDx=0;exitDy=0;entryX=1;entryY=0.5;entryDx=0;entryDy=0;" parent="1" source="BTnDJMna1HMqzvdBmYv4-92" target="BTnDJMna1HMqzvdBmYv4-95" edge="1">
          <mxGeometry relative="1" as="geometry" />
        </mxCell>
        <mxCell id="BTnDJMna1HMqzvdBmYv4-92" value="Get Binary Cross Entropy" style="rounded=0;whiteSpace=wrap;html=1;fillColor=#f0a30a;fontColor=#000000;strokeColor=#BD7000;" parent="1" vertex="1">
          <mxGeometry x="20" y="1464" width="120" height="60" as="geometry" />
        </mxCell>
        <mxCell id="BTnDJMna1HMqzvdBmYv4-96" value="Generator Loss" style="swimlane;whiteSpace=wrap;html=1;fillColor=#a20025;fontColor=#ffffff;strokeColor=#6F0000;" parent="1" vertex="1">
          <mxGeometry x="-310" y="1400" width="620" height="180" as="geometry" />
        </mxCell>
        <mxCell id="BTnDJMna1HMqzvdBmYv4-95" value="loss" style="triangle;whiteSpace=wrap;html=1;direction=west;align=right;fillColor=#0050ef;fontColor=#ffffff;strokeColor=#001DBC;" parent="BTnDJMna1HMqzvdBmYv4-96" vertex="1">
          <mxGeometry x="520" y="34" width="60" height="80" as="geometry" />
        </mxCell>
        <mxCell id="BTnDJMna1HMqzvdBmYv4-98" value="Create Adam Optimizer" style="rounded=0;whiteSpace=wrap;html=1;fillColor=#f0a30a;fontColor=#000000;strokeColor=#BD7000;" parent="1" vertex="1">
          <mxGeometry x="-880" y="1690" width="120" height="60" as="geometry" />
        </mxCell>
        <mxCell id="BTnDJMna1HMqzvdBmYv4-99" value="Create Adam Optimizer" style="rounded=0;whiteSpace=wrap;html=1;fillColor=#f0a30a;fontColor=#000000;strokeColor=#BD7000;" parent="1" vertex="1">
          <mxGeometry x="-880" y="1770" width="120" height="60" as="geometry" />
        </mxCell>
        <mxCell id="BTnDJMna1HMqzvdBmYv4-100" value="Generator Optimizer" style="shape=display;whiteSpace=wrap;html=1;fillColor=#647687;strokeColor=#314354;fontColor=#ffffff;size=0.2727272727272727;" parent="1" vertex="1">
          <mxGeometry x="-740" y="1695" width="140" height="50" as="geometry" />
        </mxCell>
        <mxCell id="BTnDJMna1HMqzvdBmYv4-101" style="edgeStyle=orthogonalEdgeStyle;rounded=0;orthogonalLoop=1;jettySize=auto;html=1;exitX=1;exitY=0.5;exitDx=0;exitDy=0;entryX=0;entryY=0.5;entryDx=0;entryDy=0;entryPerimeter=0;" parent="1" source="BTnDJMna1HMqzvdBmYv4-98" target="BTnDJMna1HMqzvdBmYv4-100" edge="1">
          <mxGeometry relative="1" as="geometry" />
        </mxCell>
        <mxCell id="BTnDJMna1HMqzvdBmYv4-102" value="Discriminator Optimizer" style="shape=display;whiteSpace=wrap;html=1;fillColor=#647687;strokeColor=#314354;fontColor=#ffffff;size=0.2727272727272727;" parent="1" vertex="1">
          <mxGeometry x="-740" y="1775" width="140" height="50" as="geometry" />
        </mxCell>
        <mxCell id="BTnDJMna1HMqzvdBmYv4-103" style="edgeStyle=orthogonalEdgeStyle;rounded=0;orthogonalLoop=1;jettySize=auto;html=1;exitX=1;exitY=0.5;exitDx=0;exitDy=0;entryX=0;entryY=0.5;entryDx=0;entryDy=0;entryPerimeter=0;" parent="1" source="BTnDJMna1HMqzvdBmYv4-99" target="BTnDJMna1HMqzvdBmYv4-102" edge="1">
          <mxGeometry relative="1" as="geometry" />
        </mxCell>
        <mxCell id="BTnDJMna1HMqzvdBmYv4-107" value="Raw Data" style="rounded=0;whiteSpace=wrap;html=1;fillColor=#f0a30a;fontColor=#000000;strokeColor=#BD7000;" parent="1" vertex="1">
          <mxGeometry x="-670" y="295" width="120" height="60" as="geometry" />
        </mxCell>
        <mxCell id="BTnDJMna1HMqzvdBmYv4-108" style="edgeStyle=orthogonalEdgeStyle;rounded=0;orthogonalLoop=1;jettySize=auto;html=1;exitX=1;exitY=0.5;exitDx=0;exitDy=0;entryX=1;entryY=0.5;entryDx=0;entryDy=0;" parent="1" source="BTnDJMna1HMqzvdBmYv4-107" target="BTnDJMna1HMqzvdBmYv4-110" edge="1">
          <mxGeometry relative="1" as="geometry">
            <mxPoint x="-450" y="325" as="targetPoint" />
          </mxGeometry>
        </mxCell>
        <mxCell id="BTnDJMna1HMqzvdBmYv4-109" value="Constants" style="swimlane;whiteSpace=wrap;html=1;fillColor=#a20025;fontColor=#ffffff;strokeColor=#6F0000;" parent="1" vertex="1">
          <mxGeometry x="-690" y="240" width="410" height="290" as="geometry" />
        </mxCell>
        <mxCell id="BTnDJMna1HMqzvdBmYv4-110" value="BATCH_SIZE" style="triangle;whiteSpace=wrap;html=1;direction=west;align=right;fillColor=#0050ef;fontColor=#ffffff;strokeColor=#001DBC;" parent="BTnDJMna1HMqzvdBmYv4-109" vertex="1">
          <mxGeometry x="260" y="45" width="110" height="80" as="geometry" />
        </mxCell>
        <mxCell id="BTnDJMna1HMqzvdBmYv4-117" value="EPOCHS" style="triangle;whiteSpace=wrap;html=1;direction=west;align=right;fillColor=#0050ef;fontColor=#ffffff;strokeColor=#001DBC;" parent="BTnDJMna1HMqzvdBmYv4-109" vertex="1">
          <mxGeometry x="210" y="120" width="110" height="80" as="geometry" />
        </mxCell>
        <mxCell id="BTnDJMna1HMqzvdBmYv4-118" value="Raw Data" style="rounded=0;whiteSpace=wrap;html=1;fillColor=#f0a30a;fontColor=#000000;strokeColor=#BD7000;" parent="BTnDJMna1HMqzvdBmYv4-109" vertex="1">
          <mxGeometry x="20" y="210" width="120" height="60" as="geometry" />
        </mxCell>
        <mxCell id="BTnDJMna1HMqzvdBmYv4-119" style="edgeStyle=orthogonalEdgeStyle;rounded=0;orthogonalLoop=1;jettySize=auto;html=1;exitX=1;exitY=0.5;exitDx=0;exitDy=0;entryX=1;entryY=0.5;entryDx=0;entryDy=0;" parent="BTnDJMna1HMqzvdBmYv4-109" source="BTnDJMna1HMqzvdBmYv4-118" target="BTnDJMna1HMqzvdBmYv4-120" edge="1">
          <mxGeometry relative="1" as="geometry">
            <mxPoint x="240" y="240" as="targetPoint" />
          </mxGeometry>
        </mxCell>
        <mxCell id="BTnDJMna1HMqzvdBmYv4-120" value="noise_dim" style="triangle;whiteSpace=wrap;html=1;direction=west;align=right;fillColor=#0050ef;fontColor=#ffffff;strokeColor=#001DBC;" parent="BTnDJMna1HMqzvdBmYv4-109" vertex="1">
          <mxGeometry x="260" y="200" width="110" height="80" as="geometry" />
        </mxCell>
        <mxCell id="BTnDJMna1HMqzvdBmYv4-115" value="Raw Data" style="rounded=0;whiteSpace=wrap;html=1;fillColor=#f0a30a;fontColor=#000000;strokeColor=#BD7000;" parent="BTnDJMna1HMqzvdBmYv4-109" vertex="1">
          <mxGeometry x="20" y="135" width="120" height="60" as="geometry" />
        </mxCell>
        <mxCell id="BTnDJMna1HMqzvdBmYv4-116" style="edgeStyle=orthogonalEdgeStyle;rounded=0;orthogonalLoop=1;jettySize=auto;html=1;exitX=1;exitY=0.5;exitDx=0;exitDy=0;entryX=1;entryY=0.5;entryDx=0;entryDy=0;" parent="BTnDJMna1HMqzvdBmYv4-109" source="BTnDJMna1HMqzvdBmYv4-115" target="BTnDJMna1HMqzvdBmYv4-117" edge="1">
          <mxGeometry relative="1" as="geometry">
            <mxPoint x="250" y="95" as="targetPoint" />
          </mxGeometry>
        </mxCell>
        <mxCell id="BTnDJMna1HMqzvdBmYv4-145" style="edgeStyle=orthogonalEdgeStyle;rounded=0;orthogonalLoop=1;jettySize=auto;html=1;exitX=1;exitY=0.5;exitDx=0;exitDy=0;entryX=0;entryY=0.5;entryDx=0;entryDy=0;" parent="1" source="BTnDJMna1HMqzvdBmYv4-121" target="BTnDJMna1HMqzvdBmYv4-142" edge="1">
          <mxGeometry relative="1" as="geometry" />
        </mxCell>
        <mxCell id="BTnDJMna1HMqzvdBmYv4-121" value="Generate Array from Normal Distribution" style="rounded=0;whiteSpace=wrap;html=1;fillColor=#f0a30a;fontColor=#000000;strokeColor=#BD7000;" parent="1" vertex="1">
          <mxGeometry x="-570" y="1915" width="120" height="60" as="geometry" />
        </mxCell>
        <mxCell id="BTnDJMna1HMqzvdBmYv4-123" style="edgeStyle=orthogonalEdgeStyle;rounded=0;orthogonalLoop=1;jettySize=auto;html=1;exitX=1;exitY=0.5;exitDx=0;exitDy=0;exitPerimeter=0;entryX=0;entryY=0.5;entryDx=0;entryDy=0;" parent="1" source="BTnDJMna1HMqzvdBmYv4-122" target="BTnDJMna1HMqzvdBmYv4-121" edge="1">
          <mxGeometry relative="1" as="geometry" />
        </mxCell>
        <mxCell id="BTnDJMna1HMqzvdBmYv4-122" value="Packer&lt;br&gt;(Ordered)" style="shape=or;whiteSpace=wrap;html=1;fillColor=#6a00ff;fontColor=#ffffff;strokeColor=#3700CC;" parent="1" vertex="1">
          <mxGeometry x="-720" y="1880" width="60" height="130" as="geometry" />
        </mxCell>
        <mxCell id="BTnDJMna1HMqzvdBmYv4-124" value="Constants" style="rounded=0;whiteSpace=wrap;html=1;fillColor=#f0a30a;fontColor=#000000;strokeColor=#BD7000;" parent="1" vertex="1">
          <mxGeometry x="-1000" y="1920" width="120" height="60" as="geometry" />
        </mxCell>
        <mxCell id="BTnDJMna1HMqzvdBmYv4-125" style="edgeStyle=orthogonalEdgeStyle;rounded=0;orthogonalLoop=1;jettySize=auto;html=1;exitX=1;exitY=0.25;exitDx=0;exitDy=0;entryX=0;entryY=0.25;entryDx=0;entryDy=0;entryPerimeter=0;" parent="1" source="BTnDJMna1HMqzvdBmYv4-124" target="BTnDJMna1HMqzvdBmYv4-122" edge="1">
          <mxGeometry relative="1" as="geometry" />
        </mxCell>
        <mxCell id="BTnDJMna1HMqzvdBmYv4-127" value="BATCH_SIZE" style="edgeLabel;html=1;align=center;verticalAlign=middle;resizable=0;points=[];" parent="BTnDJMna1HMqzvdBmYv4-125" vertex="1" connectable="0">
          <mxGeometry x="-0.0132" relative="1" as="geometry">
            <mxPoint as="offset" />
          </mxGeometry>
        </mxCell>
        <mxCell id="BTnDJMna1HMqzvdBmYv4-126" style="edgeStyle=orthogonalEdgeStyle;rounded=0;orthogonalLoop=1;jettySize=auto;html=1;exitX=1;exitY=0.75;exitDx=0;exitDy=0;entryX=0;entryY=0.75;entryDx=0;entryDy=0;entryPerimeter=0;" parent="1" source="BTnDJMna1HMqzvdBmYv4-124" target="BTnDJMna1HMqzvdBmYv4-122" edge="1">
          <mxGeometry relative="1" as="geometry" />
        </mxCell>
        <mxCell id="BTnDJMna1HMqzvdBmYv4-128" value="noise_dim" style="edgeLabel;html=1;align=center;verticalAlign=middle;resizable=0;points=[];" parent="BTnDJMna1HMqzvdBmYv4-126" vertex="1" connectable="0">
          <mxGeometry x="-0.0172" relative="1" as="geometry">
            <mxPoint as="offset" />
          </mxGeometry>
        </mxCell>
        <mxCell id="BTnDJMna1HMqzvdBmYv4-129" value="Create Gradient Tape" style="rounded=0;whiteSpace=wrap;html=1;fillColor=#f0a30a;fontColor=#000000;strokeColor=#BD7000;" parent="1" vertex="1">
          <mxGeometry x="-520" y="1690" width="120" height="60" as="geometry" />
        </mxCell>
        <mxCell id="BTnDJMna1HMqzvdBmYv4-130" value="Create Gradient Tape" style="rounded=0;whiteSpace=wrap;html=1;fillColor=#f0a30a;fontColor=#000000;strokeColor=#BD7000;" parent="1" vertex="1">
          <mxGeometry x="-520" y="1770" width="120" height="60" as="geometry" />
        </mxCell>
        <mxCell id="BTnDJMna1HMqzvdBmYv4-131" value="gen_tape" style="shape=display;whiteSpace=wrap;html=1;fillColor=#647687;strokeColor=#314354;fontColor=#ffffff;size=0.2727272727272727;" parent="1" vertex="1">
          <mxGeometry x="-360" y="1695" width="140" height="50" as="geometry" />
        </mxCell>
        <mxCell id="BTnDJMna1HMqzvdBmYv4-132" value="disc_tape" style="shape=display;whiteSpace=wrap;html=1;fillColor=#647687;strokeColor=#314354;fontColor=#ffffff;size=0.2727272727272727;" parent="1" vertex="1">
          <mxGeometry x="-360" y="1775" width="140" height="50" as="geometry" />
        </mxCell>
        <mxCell id="BTnDJMna1HMqzvdBmYv4-133" style="edgeStyle=orthogonalEdgeStyle;rounded=0;orthogonalLoop=1;jettySize=auto;html=1;exitX=1;exitY=0.5;exitDx=0;exitDy=0;entryX=0;entryY=0.5;entryDx=0;entryDy=0;entryPerimeter=0;" parent="1" source="BTnDJMna1HMqzvdBmYv4-129" target="BTnDJMna1HMqzvdBmYv4-131" edge="1">
          <mxGeometry relative="1" as="geometry" />
        </mxCell>
        <mxCell id="BTnDJMna1HMqzvdBmYv4-134" style="edgeStyle=orthogonalEdgeStyle;rounded=0;orthogonalLoop=1;jettySize=auto;html=1;exitX=1;exitY=0.5;exitDx=0;exitDy=0;entryX=0;entryY=0.5;entryDx=0;entryDy=0;entryPerimeter=0;" parent="1" source="BTnDJMna1HMqzvdBmYv4-130" target="BTnDJMna1HMqzvdBmYv4-132" edge="1">
          <mxGeometry relative="1" as="geometry" />
        </mxCell>
        <mxCell id="BTnDJMna1HMqzvdBmYv4-135" value="Generator Model" style="rounded=0;whiteSpace=wrap;html=1;fillColor=#f0a30a;fontColor=#000000;strokeColor=#BD7000;" parent="1" vertex="1">
          <mxGeometry x="-160" y="1690" width="120" height="60" as="geometry" />
        </mxCell>
        <mxCell id="BTnDJMna1HMqzvdBmYv4-136" value="generator" style="shape=display;whiteSpace=wrap;html=1;fillColor=#647687;strokeColor=#314354;fontColor=#ffffff;size=0.2727272727272727;" parent="1" vertex="1">
          <mxGeometry x="-10" y="1695" width="140" height="50" as="geometry" />
        </mxCell>
        <mxCell id="BTnDJMna1HMqzvdBmYv4-137" style="edgeStyle=orthogonalEdgeStyle;rounded=0;orthogonalLoop=1;jettySize=auto;html=1;exitX=1;exitY=0.5;exitDx=0;exitDy=0;entryX=0;entryY=0.5;entryDx=0;entryDy=0;entryPerimeter=0;" parent="1" source="BTnDJMna1HMqzvdBmYv4-135" target="BTnDJMna1HMqzvdBmYv4-136" edge="1">
          <mxGeometry relative="1" as="geometry" />
        </mxCell>
        <mxCell id="BTnDJMna1HMqzvdBmYv4-138" value="Discriminator Model" style="rounded=0;whiteSpace=wrap;html=1;fillColor=#f0a30a;fontColor=#000000;strokeColor=#BD7000;" parent="1" vertex="1">
          <mxGeometry x="-160" y="1770" width="120" height="60" as="geometry" />
        </mxCell>
        <mxCell id="BTnDJMna1HMqzvdBmYv4-139" value="discriminator" style="shape=display;whiteSpace=wrap;html=1;fillColor=#647687;strokeColor=#314354;fontColor=#ffffff;size=0.2727272727272727;" parent="1" vertex="1">
          <mxGeometry x="-10" y="1775" width="140" height="50" as="geometry" />
        </mxCell>
        <mxCell id="BTnDJMna1HMqzvdBmYv4-141" style="edgeStyle=orthogonalEdgeStyle;rounded=0;orthogonalLoop=1;jettySize=auto;html=1;exitX=1;exitY=0.5;exitDx=0;exitDy=0;entryX=0;entryY=0.5;entryDx=0;entryDy=0;entryPerimeter=0;" parent="1" source="BTnDJMna1HMqzvdBmYv4-138" target="BTnDJMna1HMqzvdBmYv4-139" edge="1">
          <mxGeometry relative="1" as="geometry" />
        </mxCell>
        <mxCell id="BTnDJMna1HMqzvdBmYv4-142" value="Run Training Step" style="rounded=0;whiteSpace=wrap;html=1;fillColor=#f0a30a;fontColor=#000000;strokeColor=#BD7000;" parent="1" vertex="1">
          <mxGeometry x="-160" y="1920" width="120" height="60" as="geometry" />
        </mxCell>
        <mxCell id="BTnDJMna1HMqzvdBmYv4-144" style="edgeStyle=orthogonalEdgeStyle;rounded=0;orthogonalLoop=1;jettySize=auto;html=1;exitX=0;exitY=0.5;exitDx=0;exitDy=0;exitPerimeter=0;entryX=0;entryY=0.25;entryDx=0;entryDy=0;" parent="1" source="BTnDJMna1HMqzvdBmYv4-143" target="BTnDJMna1HMqzvdBmYv4-142" edge="1">
          <mxGeometry relative="1" as="geometry" />
        </mxCell>
        <mxCell id="BTnDJMna1HMqzvdBmYv4-143" value="generator" style="shape=display;whiteSpace=wrap;html=1;fillColor=#647687;strokeColor=#314354;fontColor=#ffffff;size=0.2727272727272727;direction=west;" parent="1" vertex="1">
          <mxGeometry x="-270" y="1920" width="70" height="20" as="geometry" />
        </mxCell>
        <mxCell id="BTnDJMna1HMqzvdBmYv4-147" style="edgeStyle=orthogonalEdgeStyle;rounded=0;orthogonalLoop=1;jettySize=auto;html=1;exitX=0;exitY=0.5;exitDx=0;exitDy=0;exitPerimeter=0;entryX=0;entryY=0.75;entryDx=0;entryDy=0;" parent="1" source="BTnDJMna1HMqzvdBmYv4-146" target="BTnDJMna1HMqzvdBmYv4-142" edge="1">
          <mxGeometry relative="1" as="geometry" />
        </mxCell>
        <mxCell id="BTnDJMna1HMqzvdBmYv4-146" value="gen_tape" style="shape=display;whiteSpace=wrap;html=1;fillColor=#647687;strokeColor=#314354;fontColor=#ffffff;size=0.2727272727272727;direction=west;" parent="1" vertex="1">
          <mxGeometry x="-270" y="1960" width="70" height="20" as="geometry" />
        </mxCell>
        <mxCell id="BTnDJMna1HMqzvdBmYv4-174" style="edgeStyle=orthogonalEdgeStyle;rounded=0;orthogonalLoop=1;jettySize=auto;html=1;exitX=1;exitY=0.5;exitDx=0;exitDy=0;entryX=0;entryY=0.75;entryDx=0;entryDy=0;" parent="1" source="BTnDJMna1HMqzvdBmYv4-158" target="BTnDJMna1HMqzvdBmYv4-172" edge="1">
          <mxGeometry relative="1" as="geometry" />
        </mxCell>
        <mxCell id="BTnDJMna1HMqzvdBmYv4-158" value="Run Training Step" style="rounded=0;whiteSpace=wrap;html=1;fillColor=#f0a30a;fontColor=#000000;strokeColor=#BD7000;" parent="1" vertex="1">
          <mxGeometry x="-160" y="2170" width="120" height="60" as="geometry" />
        </mxCell>
        <mxCell id="BTnDJMna1HMqzvdBmYv4-159" style="edgeStyle=orthogonalEdgeStyle;rounded=0;orthogonalLoop=1;jettySize=auto;html=1;exitX=0;exitY=0.5;exitDx=0;exitDy=0;exitPerimeter=0;entryX=0;entryY=0.25;entryDx=0;entryDy=0;" parent="1" source="BTnDJMna1HMqzvdBmYv4-160" target="BTnDJMna1HMqzvdBmYv4-158" edge="1">
          <mxGeometry relative="1" as="geometry" />
        </mxCell>
        <mxCell id="BTnDJMna1HMqzvdBmYv4-160" value="discriminator" style="shape=display;whiteSpace=wrap;html=1;fillColor=#647687;strokeColor=#314354;fontColor=#ffffff;size=0.2727272727272727;direction=west;" parent="1" vertex="1">
          <mxGeometry x="-290" y="2170" width="90" height="20" as="geometry" />
        </mxCell>
        <mxCell id="BTnDJMna1HMqzvdBmYv4-161" style="edgeStyle=orthogonalEdgeStyle;rounded=0;orthogonalLoop=1;jettySize=auto;html=1;exitX=0;exitY=0.5;exitDx=0;exitDy=0;exitPerimeter=0;entryX=0;entryY=0.75;entryDx=0;entryDy=0;" parent="1" source="BTnDJMna1HMqzvdBmYv4-162" target="BTnDJMna1HMqzvdBmYv4-158" edge="1">
          <mxGeometry relative="1" as="geometry" />
        </mxCell>
        <mxCell id="BTnDJMna1HMqzvdBmYv4-162" value="disc_tape" style="shape=display;whiteSpace=wrap;html=1;fillColor=#647687;strokeColor=#314354;fontColor=#ffffff;size=0.2727272727272727;direction=west;" parent="1" vertex="1">
          <mxGeometry x="-270" y="2210" width="70" height="20" as="geometry" />
        </mxCell>
        <mxCell id="BTnDJMna1HMqzvdBmYv4-164" style="edgeStyle=orthogonalEdgeStyle;rounded=0;orthogonalLoop=1;jettySize=auto;html=1;exitX=1;exitY=0.5;exitDx=0;exitDy=0;entryX=0;entryY=0.5;entryDx=0;entryDy=0;" parent="1" source="BTnDJMna1HMqzvdBmYv4-163" target="BTnDJMna1HMqzvdBmYv4-158" edge="1">
          <mxGeometry relative="1" as="geometry" />
        </mxCell>
        <mxCell id="BTnDJMna1HMqzvdBmYv4-163" value="images" style="triangle;whiteSpace=wrap;html=1;align=left;fillColor=#0050ef;fontColor=#ffffff;strokeColor=#001DBC;" parent="1" vertex="1">
          <mxGeometry x="-360" y="2160" width="60" height="80" as="geometry" />
        </mxCell>
        <mxCell id="BTnDJMna1HMqzvdBmYv4-173" style="edgeStyle=orthogonalEdgeStyle;rounded=0;orthogonalLoop=1;jettySize=auto;html=1;exitX=1;exitY=0.5;exitDx=0;exitDy=0;entryX=0;entryY=0.25;entryDx=0;entryDy=0;" parent="1" source="BTnDJMna1HMqzvdBmYv4-165" target="BTnDJMna1HMqzvdBmYv4-172" edge="1">
          <mxGeometry relative="1" as="geometry" />
        </mxCell>
        <mxCell id="BTnDJMna1HMqzvdBmYv4-177" style="edgeStyle=orthogonalEdgeStyle;rounded=0;orthogonalLoop=1;jettySize=auto;html=1;exitX=1;exitY=0.5;exitDx=0;exitDy=0;entryX=0;entryY=0.5;entryDx=0;entryDy=0;" parent="1" source="BTnDJMna1HMqzvdBmYv4-165" target="BTnDJMna1HMqzvdBmYv4-175" edge="1">
          <mxGeometry relative="1" as="geometry" />
        </mxCell>
        <mxCell id="BTnDJMna1HMqzvdBmYv4-165" value="Run Training Step" style="rounded=0;whiteSpace=wrap;html=1;fillColor=#f0a30a;fontColor=#000000;strokeColor=#BD7000;" parent="1" vertex="1">
          <mxGeometry x="-160" y="2080" width="120" height="60" as="geometry" />
        </mxCell>
        <mxCell id="BTnDJMna1HMqzvdBmYv4-166" style="edgeStyle=orthogonalEdgeStyle;rounded=0;orthogonalLoop=1;jettySize=auto;html=1;exitX=0;exitY=0.5;exitDx=0;exitDy=0;exitPerimeter=0;entryX=0;entryY=0.25;entryDx=0;entryDy=0;" parent="1" source="BTnDJMna1HMqzvdBmYv4-167" target="BTnDJMna1HMqzvdBmYv4-165" edge="1">
          <mxGeometry relative="1" as="geometry" />
        </mxCell>
        <mxCell id="BTnDJMna1HMqzvdBmYv4-167" value="discriminator" style="shape=display;whiteSpace=wrap;html=1;fillColor=#647687;strokeColor=#314354;fontColor=#ffffff;size=0.2727272727272727;direction=west;" parent="1" vertex="1">
          <mxGeometry x="-330" y="2080" width="90" height="20" as="geometry" />
        </mxCell>
        <mxCell id="BTnDJMna1HMqzvdBmYv4-168" style="edgeStyle=orthogonalEdgeStyle;rounded=0;orthogonalLoop=1;jettySize=auto;html=1;exitX=0;exitY=0.5;exitDx=0;exitDy=0;exitPerimeter=0;entryX=0;entryY=0.75;entryDx=0;entryDy=0;" parent="1" source="BTnDJMna1HMqzvdBmYv4-169" target="BTnDJMna1HMqzvdBmYv4-165" edge="1">
          <mxGeometry relative="1" as="geometry" />
        </mxCell>
        <mxCell id="BTnDJMna1HMqzvdBmYv4-169" value="disc_tape" style="shape=display;whiteSpace=wrap;html=1;fillColor=#647687;strokeColor=#314354;fontColor=#ffffff;size=0.2727272727272727;direction=west;" parent="1" vertex="1">
          <mxGeometry x="-270" y="2120" width="70" height="20" as="geometry" />
        </mxCell>
        <mxCell id="BTnDJMna1HMqzvdBmYv4-170" style="edgeStyle=orthogonalEdgeStyle;rounded=0;orthogonalLoop=1;jettySize=auto;html=1;exitX=1;exitY=0.5;exitDx=0;exitDy=0;entryX=0;entryY=0.5;entryDx=0;entryDy=0;" parent="1" source="BTnDJMna1HMqzvdBmYv4-142" target="BTnDJMna1HMqzvdBmYv4-165" edge="1">
          <mxGeometry relative="1" as="geometry">
            <mxPoint x="50" y="1950" as="sourcePoint" />
          </mxGeometry>
        </mxCell>
        <mxCell id="BTnDJMna1HMqzvdBmYv4-187" style="edgeStyle=orthogonalEdgeStyle;rounded=0;orthogonalLoop=1;jettySize=auto;html=1;exitX=1;exitY=0.5;exitDx=0;exitDy=0;entryX=0;entryY=0.25;entryDx=0;entryDy=0;" parent="1" source="BTnDJMna1HMqzvdBmYv4-172" target="BTnDJMna1HMqzvdBmYv4-179" edge="1">
          <mxGeometry relative="1" as="geometry" />
        </mxCell>
        <mxCell id="BTnDJMna1HMqzvdBmYv4-172" value="Discriminator Loss" style="rounded=0;whiteSpace=wrap;html=1;fillColor=#f0a30a;fontColor=#000000;strokeColor=#BD7000;" parent="1" vertex="1">
          <mxGeometry x="10" y="2120" width="120" height="60" as="geometry" />
        </mxCell>
        <mxCell id="BTnDJMna1HMqzvdBmYv4-180" style="edgeStyle=orthogonalEdgeStyle;rounded=0;orthogonalLoop=1;jettySize=auto;html=1;exitX=1;exitY=0.5;exitDx=0;exitDy=0;entryX=0;entryY=0.25;entryDx=0;entryDy=0;" parent="1" source="BTnDJMna1HMqzvdBmYv4-175" target="BTnDJMna1HMqzvdBmYv4-178" edge="1">
          <mxGeometry relative="1" as="geometry" />
        </mxCell>
        <mxCell id="BTnDJMna1HMqzvdBmYv4-175" value="Generator Loss" style="rounded=0;whiteSpace=wrap;html=1;fillColor=#f0a30a;fontColor=#000000;strokeColor=#BD7000;" parent="1" vertex="1">
          <mxGeometry x="10" y="2050" width="120" height="60" as="geometry" />
        </mxCell>
        <mxCell id="BTnDJMna1HMqzvdBmYv4-178" value="Apply Gradients To Model Inplace" style="rounded=0;whiteSpace=wrap;html=1;fillColor=#f0a30a;fontColor=#000000;strokeColor=#BD7000;" parent="1" vertex="1">
          <mxGeometry x="300" y="2020" width="120" height="60" as="geometry" />
        </mxCell>
        <mxCell id="BTnDJMna1HMqzvdBmYv4-179" value="Apply Gradients To Model Inplace" style="rounded=0;whiteSpace=wrap;html=1;fillColor=#f0a30a;fontColor=#000000;strokeColor=#BD7000;" parent="1" vertex="1">
          <mxGeometry x="300" y="2140" width="120" height="60" as="geometry" />
        </mxCell>
        <mxCell id="BTnDJMna1HMqzvdBmYv4-182" style="edgeStyle=orthogonalEdgeStyle;rounded=0;orthogonalLoop=1;jettySize=auto;html=1;exitX=0;exitY=0.5;exitDx=0;exitDy=0;exitPerimeter=0;entryX=0;entryY=0;entryDx=0;entryDy=0;" parent="1" source="BTnDJMna1HMqzvdBmYv4-181" target="BTnDJMna1HMqzvdBmYv4-178" edge="1">
          <mxGeometry relative="1" as="geometry" />
        </mxCell>
        <mxCell id="BTnDJMna1HMqzvdBmYv4-181" value="gen_tape" style="shape=display;whiteSpace=wrap;html=1;fillColor=#647687;strokeColor=#314354;fontColor=#ffffff;size=0.2727272727272727;direction=west;" parent="1" vertex="1">
          <mxGeometry x="180" y="1990" width="70" height="20" as="geometry" />
        </mxCell>
        <mxCell id="BTnDJMna1HMqzvdBmYv4-184" style="edgeStyle=orthogonalEdgeStyle;rounded=0;orthogonalLoop=1;jettySize=auto;html=1;exitX=0;exitY=0.5;exitDx=0;exitDy=0;exitPerimeter=0;entryX=0;entryY=0.5;entryDx=0;entryDy=0;" parent="1" source="BTnDJMna1HMqzvdBmYv4-183" target="BTnDJMna1HMqzvdBmYv4-178" edge="1">
          <mxGeometry relative="1" as="geometry" />
        </mxCell>
        <mxCell id="BTnDJMna1HMqzvdBmYv4-183" value="generator" style="shape=display;whiteSpace=wrap;html=1;fillColor=#647687;strokeColor=#314354;fontColor=#ffffff;size=0.2727272727272727;direction=west;" parent="1" vertex="1">
          <mxGeometry x="140" y="2030" width="70" height="20" as="geometry" />
        </mxCell>
        <mxCell id="BTnDJMna1HMqzvdBmYv4-186" style="edgeStyle=orthogonalEdgeStyle;rounded=0;orthogonalLoop=1;jettySize=auto;html=1;exitX=0;exitY=0.5;exitDx=0;exitDy=0;exitPerimeter=0;entryX=0;entryY=0.75;entryDx=0;entryDy=0;" parent="1" source="BTnDJMna1HMqzvdBmYv4-185" target="BTnDJMna1HMqzvdBmYv4-178" edge="1">
          <mxGeometry relative="1" as="geometry" />
        </mxCell>
        <mxCell id="BTnDJMna1HMqzvdBmYv4-185" value="Generator Optimizer" style="shape=display;whiteSpace=wrap;html=1;fillColor=#647687;strokeColor=#314354;fontColor=#ffffff;size=0.2727272727272727;direction=west;" parent="1" vertex="1">
          <mxGeometry x="90" y="1925" width="140" height="50" as="geometry" />
        </mxCell>
        <mxCell id="BTnDJMna1HMqzvdBmYv4-189" style="edgeStyle=orthogonalEdgeStyle;rounded=0;orthogonalLoop=1;jettySize=auto;html=1;exitX=0;exitY=0.5;exitDx=0;exitDy=0;exitPerimeter=0;entryX=0;entryY=0.75;entryDx=0;entryDy=0;" parent="1" source="BTnDJMna1HMqzvdBmYv4-188" target="BTnDJMna1HMqzvdBmYv4-179" edge="1">
          <mxGeometry relative="1" as="geometry" />
        </mxCell>
        <mxCell id="BTnDJMna1HMqzvdBmYv4-188" value="discriminator" style="shape=display;whiteSpace=wrap;html=1;fillColor=#647687;strokeColor=#314354;fontColor=#ffffff;size=0.2727272727272727;direction=west;" parent="1" vertex="1">
          <mxGeometry x="170" y="2260" width="90" height="20" as="geometry" />
        </mxCell>
        <mxCell id="BTnDJMna1HMqzvdBmYv4-191" style="edgeStyle=orthogonalEdgeStyle;rounded=0;orthogonalLoop=1;jettySize=auto;html=1;exitX=0;exitY=0.5;exitDx=0;exitDy=0;exitPerimeter=0;entryX=0;entryY=0.5;entryDx=0;entryDy=0;" parent="1" source="BTnDJMna1HMqzvdBmYv4-190" target="BTnDJMna1HMqzvdBmYv4-179" edge="1">
          <mxGeometry relative="1" as="geometry" />
        </mxCell>
        <mxCell id="BTnDJMna1HMqzvdBmYv4-190" value="disc_tape" style="shape=display;whiteSpace=wrap;html=1;fillColor=#647687;strokeColor=#314354;fontColor=#ffffff;size=0.2727272727272727;direction=west;" parent="1" vertex="1">
          <mxGeometry x="150" y="2210" width="70" height="20" as="geometry" />
        </mxCell>
        <mxCell id="BTnDJMna1HMqzvdBmYv4-193" style="edgeStyle=orthogonalEdgeStyle;rounded=0;orthogonalLoop=1;jettySize=auto;html=1;exitX=0;exitY=0.5;exitDx=0;exitDy=0;exitPerimeter=0;entryX=0;entryY=0;entryDx=0;entryDy=0;" parent="1" source="BTnDJMna1HMqzvdBmYv4-192" target="BTnDJMna1HMqzvdBmYv4-179" edge="1">
          <mxGeometry relative="1" as="geometry" />
        </mxCell>
        <mxCell id="BTnDJMna1HMqzvdBmYv4-192" value="Discriminator Optimizer" style="shape=display;whiteSpace=wrap;html=1;fillColor=#647687;strokeColor=#314354;fontColor=#ffffff;size=0.2727272727272727;direction=west;" parent="1" vertex="1">
          <mxGeometry x="140" y="2090" width="140" height="50" as="geometry" />
        </mxCell>
        <mxCell id="BTnDJMna1HMqzvdBmYv4-194" value="Train Step" style="swimlane;whiteSpace=wrap;html=1;fillColor=#a20025;fontColor=#ffffff;strokeColor=#6F0000;" parent="1" vertex="1">
          <mxGeometry x="-1030" y="1632.5" width="1520" height="675" as="geometry" />
        </mxCell>
        <mxCell id="BTnDJMna1HMqzvdBmYv4-225" value="This is a tensorflow training artefact which is always decorated with @tf.function" style="text;html=1;strokeColor=#36393d;fillColor=#ffff88;align=left;verticalAlign=top;whiteSpace=wrap;rounded=0;fixedWidth=0;autosize=1;" parent="BTnDJMna1HMqzvdBmYv4-194" vertex="1">
          <mxGeometry x="70" y="487.5" width="450" height="30" as="geometry" />
        </mxCell>
        <mxCell id="BTnDJMna1HMqzvdBmYv4-202" value="Constants" style="rounded=0;whiteSpace=wrap;html=1;fillColor=#f0a30a;fontColor=#000000;strokeColor=#BD7000;" parent="1" vertex="1">
          <mxGeometry x="-910" y="2590" width="120" height="60" as="geometry" />
        </mxCell>
        <mxCell id="BTnDJMna1HMqzvdBmYv4-203" value="epochs" style="shape=display;whiteSpace=wrap;html=1;fillColor=#647687;strokeColor=#314354;fontColor=#ffffff;size=0.2727272727272727;" parent="1" vertex="1">
          <mxGeometry x="-710" y="2595" width="140" height="50" as="geometry" />
        </mxCell>
        <mxCell id="BTnDJMna1HMqzvdBmYv4-204" style="edgeStyle=orthogonalEdgeStyle;rounded=0;orthogonalLoop=1;jettySize=auto;html=1;exitX=1;exitY=0.5;exitDx=0;exitDy=0;entryX=0;entryY=0.5;entryDx=0;entryDy=0;entryPerimeter=0;" parent="1" source="BTnDJMna1HMqzvdBmYv4-202" target="BTnDJMna1HMqzvdBmYv4-203" edge="1">
          <mxGeometry relative="1" as="geometry" />
        </mxCell>
        <mxCell id="BTnDJMna1HMqzvdBmYv4-205" value="EPOCHS" style="edgeLabel;html=1;align=center;verticalAlign=middle;resizable=0;points=[];" parent="BTnDJMna1HMqzvdBmYv4-204" vertex="1" connectable="0">
          <mxGeometry x="-0.0769" relative="1" as="geometry">
            <mxPoint as="offset" />
          </mxGeometry>
        </mxCell>
        <mxCell id="BTnDJMna1HMqzvdBmYv4-206" value="Repeat Loop" style="swimlane;html=1;startSize=20;horizontal=0;childLayout=flowLayout;flowOrientation=west;resizable=1;interRankCellSpacing=50;containerType=tree;fontSize=12;container=1;autosize=1;fillColor=#d80073;fontColor=#ffffff;strokeColor=#A50040;" parent="1" vertex="1">
          <mxGeometry x="-730" y="2750" width="200" height="100" as="geometry" />
        </mxCell>
        <mxCell id="BTnDJMna1HMqzvdBmYv4-208" style="edgeStyle=orthogonalEdgeStyle;rounded=0;orthogonalLoop=1;jettySize=auto;html=1;exitX=0;exitY=0.5;exitDx=0;exitDy=0;exitPerimeter=0;entryX=0;entryY=0;entryDx=0;entryDy=0;" parent="1" source="BTnDJMna1HMqzvdBmYv4-207" target="BTnDJMna1HMqzvdBmYv4-206" edge="1">
          <mxGeometry relative="1" as="geometry" />
        </mxCell>
        <mxCell id="BTnDJMna1HMqzvdBmYv4-207" value="epochs" style="shape=display;whiteSpace=wrap;html=1;fillColor=#647687;strokeColor=#314354;fontColor=#ffffff;size=0.2727272727272727;direction=west;" parent="1" vertex="1">
          <mxGeometry x="-910" y="2680" width="140" height="50" as="geometry" />
        </mxCell>
        <mxCell id="BTnDJMna1HMqzvdBmYv4-224" value="Training Loop" style="swimlane;whiteSpace=wrap;html=1;fillColor=#a20025;fontColor=#ffffff;strokeColor=#6F0000;" parent="1" vertex="1">
          <mxGeometry x="-1010" y="2480" width="890" height="420" as="geometry" />
        </mxCell>
        <mxCell id="4ErzhL_by6YQZ5HGFUfq-25" value="tmp 1" style="rounded=0;whiteSpace=wrap;html=1;fillColor=#f0a30a;fontColor=#000000;strokeColor=#BD7000;" parent="BTnDJMna1HMqzvdBmYv4-224" vertex="1">
          <mxGeometry x="330" y="290" width="120" height="60" as="geometry" />
        </mxCell>
        <mxCell id="4ErzhL_by6YQZ5HGFUfq-31" value="1" style="text;html=1;align=left;verticalAlign=top;whiteSpace=wrap;rounded=0;autosize=1;fontFamily=Lucida Console;fillColor=#f5f5f5;fontColor=#333333;strokeColor=#666666;" parent="BTnDJMna1HMqzvdBmYv4-224" vertex="1">
          <mxGeometry x="150" y="70" width="30" height="30" as="geometry" />
        </mxCell>
        <mxCell id="4ErzhL_by6YQZ5HGFUfq-32" value="2" style="text;html=1;align=left;verticalAlign=top;whiteSpace=wrap;rounded=0;autosize=1;fontFamily=Lucida Console;fillColor=#f5f5f5;fontColor=#333333;strokeColor=#666666;" parent="BTnDJMna1HMqzvdBmYv4-224" vertex="1">
          <mxGeometry x="350" y="80" width="30" height="30" as="geometry" />
        </mxCell>
        <mxCell id="4ErzhL_by6YQZ5HGFUfq-33" value="3" style="text;html=1;align=left;verticalAlign=top;whiteSpace=wrap;rounded=0;autosize=1;fontFamily=Lucida Console;fillColor=#f5f5f5;fontColor=#333333;strokeColor=#666666;" parent="BTnDJMna1HMqzvdBmYv4-224" vertex="1">
          <mxGeometry x="160" y="260" width="30" height="30" as="geometry" />
        </mxCell>
        <mxCell id="4ErzhL_by6YQZ5HGFUfq-34" value="4" style="text;html=1;align=left;verticalAlign=top;whiteSpace=wrap;rounded=0;autosize=1;fontFamily=Lucida Console;fillColor=#f5f5f5;fontColor=#333333;strokeColor=#666666;" parent="BTnDJMna1HMqzvdBmYv4-224" vertex="1">
          <mxGeometry x="400" y="220" width="30" height="30" as="geometry" />
        </mxCell>
        <mxCell id="4ErzhL_by6YQZ5HGFUfq-3" value="tmp 1" style="swimlane;whiteSpace=wrap;html=1;fillColor=#a20025;fontColor=#ffffff;strokeColor=#6F0000;" parent="1" vertex="1">
          <mxGeometry x="-1000" y="2920" width="890" height="420" as="geometry" />
        </mxCell>
        <mxCell id="4ErzhL_by6YQZ5HGFUfq-6" value="Loaded Data" style="rounded=0;whiteSpace=wrap;html=1;fillColor=#f0a30a;fontColor=#000000;strokeColor=#BD7000;" parent="4ErzhL_by6YQZ5HGFUfq-3" vertex="1">
          <mxGeometry x="200" y="80" width="120" height="60" as="geometry" />
        </mxCell>
        <mxCell id="4ErzhL_by6YQZ5HGFUfq-14" value="For Each" style="swimlane;html=1;startSize=20;horizontal=0;childLayout=flowLayout;flowOrientation=west;resizable=1;interRankCellSpacing=50;containerType=tree;fontSize=12;container=1;autosize=0;fillColor=#d80073;fontColor=#ffffff;strokeColor=#A50040;" parent="4ErzhL_by6YQZ5HGFUfq-3" vertex="1">
          <mxGeometry x="270" y="300" width="180" height="100" as="geometry" />
        </mxCell>
        <mxCell id="4ErzhL_by6YQZ5HGFUfq-24" value="tmp 2" style="rounded=0;whiteSpace=wrap;html=1;fillColor=#f0a30a;fontColor=#000000;strokeColor=#BD7000;" parent="4ErzhL_by6YQZ5HGFUfq-14" vertex="1">
          <mxGeometry x="40" y="20" width="120" height="60" as="geometry" />
        </mxCell>
        <mxCell id="4ErzhL_by6YQZ5HGFUfq-4" style="edgeStyle=orthogonalEdgeStyle;rounded=0;orthogonalLoop=1;jettySize=auto;html=1;exitX=1;exitY=0.5;exitDx=0;exitDy=0;entryX=0;entryY=0;entryDx=0;entryDy=0;" parent="4ErzhL_by6YQZ5HGFUfq-3" source="4ErzhL_by6YQZ5HGFUfq-6" target="4ErzhL_by6YQZ5HGFUfq-14" edge="1">
          <mxGeometry relative="1" as="geometry">
            <mxPoint x="450" y="110" as="targetPoint" />
          </mxGeometry>
        </mxCell>
        <mxCell id="4ErzhL_by6YQZ5HGFUfq-5" value="train dataset" style="edgeLabel;html=1;align=center;verticalAlign=middle;resizable=0;points=[];" parent="4ErzhL_by6YQZ5HGFUfq-4" vertex="1" connectable="0">
          <mxGeometry x="-0.1074" relative="1" as="geometry">
            <mxPoint as="offset" />
          </mxGeometry>
        </mxCell>
        <mxCell id="4ErzhL_by6YQZ5HGFUfq-23" value="tmp 2" style="swimlane;whiteSpace=wrap;html=1;fillColor=#a20025;fontColor=#ffffff;strokeColor=#6F0000;" parent="1" vertex="1">
          <mxGeometry x="-720" y="3410" width="320" height="150" as="geometry" />
        </mxCell>
        <mxCell id="4ErzhL_by6YQZ5HGFUfq-20" value="s_element" style="triangle;whiteSpace=wrap;html=1;align=left;fillColor=#0050ef;fontColor=#ffffff;strokeColor=#001DBC;" parent="4ErzhL_by6YQZ5HGFUfq-23" vertex="1">
          <mxGeometry x="30" y="50" width="80" height="80" as="geometry" />
        </mxCell>
        <mxCell id="4ErzhL_by6YQZ5HGFUfq-21" value="Train Step" style="rounded=0;whiteSpace=wrap;html=1;fillColor=#f0a30a;fontColor=#000000;strokeColor=#BD7000;" parent="4ErzhL_by6YQZ5HGFUfq-23" vertex="1">
          <mxGeometry x="160" y="60" width="120" height="60" as="geometry" />
        </mxCell>
        <mxCell id="4ErzhL_by6YQZ5HGFUfq-22" style="edgeStyle=orthogonalEdgeStyle;rounded=0;orthogonalLoop=1;jettySize=auto;html=1;exitX=1;exitY=0.5;exitDx=0;exitDy=0;entryX=0;entryY=0.5;entryDx=0;entryDy=0;noEdgeStyle=1;orthogonal=1;" parent="4ErzhL_by6YQZ5HGFUfq-23" source="4ErzhL_by6YQZ5HGFUfq-20" target="4ErzhL_by6YQZ5HGFUfq-21" edge="1">
          <mxGeometry relative="1" as="geometry">
            <Array as="points">
              <mxPoint x="122" y="90" />
              <mxPoint x="148" y="90" />
            </Array>
          </mxGeometry>
        </mxCell>
        <mxCell id="4ErzhL_by6YQZ5HGFUfq-26" value="Loaded Data" style="swimlane;whiteSpace=wrap;html=1;fillColor=#a20025;fontColor=#ffffff;strokeColor=#6F0000;" parent="1" vertex="1">
          <mxGeometry x="-85" y="2480" width="890" height="420" as="geometry" />
        </mxCell>
        <mxCell id="4ErzhL_by6YQZ5HGFUfq-28" style="edgeStyle=orthogonalEdgeStyle;rounded=0;orthogonalLoop=1;jettySize=auto;html=1;exitX=1;exitY=0.5;exitDx=0;exitDy=0;entryX=1;entryY=0.5;entryDx=0;entryDy=0;" parent="4ErzhL_by6YQZ5HGFUfq-26" source="4ErzhL_by6YQZ5HGFUfq-27" target="4ErzhL_by6YQZ5HGFUfq-29" edge="1">
          <mxGeometry relative="1" as="geometry">
            <mxPoint x="475" y="190.2105263157896" as="targetPoint" />
          </mxGeometry>
        </mxCell>
        <mxCell id="4ErzhL_by6YQZ5HGFUfq-30" value="train dataset" style="edgeLabel;html=1;align=center;verticalAlign=middle;resizable=0;points=[];" parent="4ErzhL_by6YQZ5HGFUfq-28" vertex="1" connectable="0">
          <mxGeometry x="0.064" y="-1" relative="1" as="geometry">
            <mxPoint as="offset" />
          </mxGeometry>
        </mxCell>
        <mxCell id="4ErzhL_by6YQZ5HGFUfq-27" value="MNIST Data Loader" style="rounded=0;whiteSpace=wrap;html=1;fillColor=#f0a30a;fontColor=#000000;strokeColor=#BD7000;" parent="4ErzhL_by6YQZ5HGFUfq-26" vertex="1">
          <mxGeometry x="200" y="160" width="120" height="60" as="geometry" />
        </mxCell>
        <mxCell id="4ErzhL_by6YQZ5HGFUfq-29" value="train dataset" style="triangle;whiteSpace=wrap;html=1;direction=west;align=right;fillColor=#0050ef;fontColor=#ffffff;strokeColor=#001DBC;" parent="4ErzhL_by6YQZ5HGFUfq-26" vertex="1">
          <mxGeometry x="515" y="150" width="60" height="80" as="geometry" />
        </mxCell>
        <mxCell id="4ErzhL_by6YQZ5HGFUfq-43" value="TrainStepArtefact&lt;br&gt;&lt;br&gt;by -&amp;gt; RS" style="text;html=1;align=left;verticalAlign=top;whiteSpace=wrap;rounded=0;autosize=1;fontFamily=Lucida Console;fillColor=#f5f5f5;fontColor=#333333;strokeColor=#666666;" parent="1" vertex="1">
          <mxGeometry x="530" y="1680" width="150" height="60" as="geometry" />
        </mxCell>
        <mxCell id="4ErzhL_by6YQZ5HGFUfq-44" value="TrainLoopArtefact&lt;br&gt;&lt;br&gt;by -&amp;gt; RS" style="text;html=1;align=left;verticalAlign=top;whiteSpace=wrap;rounded=0;autosize=1;fontFamily=Lucida Console;fillColor=#f5f5f5;fontColor=#333333;strokeColor=#666666;" parent="1" vertex="1">
          <mxGeometry x="-1250" y="2530" width="150" height="60" as="geometry" />
        </mxCell>
        <mxCell id="4ErzhL_by6YQZ5HGFUfq-45" value="ArtefactType&lt;br&gt;&lt;br&gt;by -&amp;gt; RS" style="text;html=1;align=left;verticalAlign=top;whiteSpace=wrap;rounded=0;autosize=1;fontFamily=Lucida Console;fillColor=#f5f5f5;fontColor=#333333;strokeColor=#666666;" parent="1" vertex="1">
          <mxGeometry x="-1200" y="2950" width="110" height="60" as="geometry" />
        </mxCell>
        <mxCell id="4ErzhL_by6YQZ5HGFUfq-46" value="ArtefactType&lt;br&gt;&lt;br&gt;by -&amp;gt; RS" style="text;html=1;align=left;verticalAlign=top;whiteSpace=wrap;rounded=0;autosize=1;fontFamily=Lucida Console;fillColor=#f5f5f5;fontColor=#333333;strokeColor=#666666;" parent="1" vertex="1">
          <mxGeometry x="-840" y="3450" width="110" height="60" as="geometry" />
        </mxCell>
        <mxCell id="4ErzhL_by6YQZ5HGFUfq-47" value="ArtefactType&lt;br&gt;&lt;br&gt;by -&amp;gt; RS" style="text;html=1;align=left;verticalAlign=top;whiteSpace=wrap;rounded=0;autosize=1;fontFamily=Lucida Console;fillColor=#f5f5f5;fontColor=#333333;strokeColor=#666666;" parent="1" vertex="1">
          <mxGeometry x="840" y="2510" width="110" height="60" as="geometry" />
        </mxCell>
        <mxCell id="4ErzhL_by6YQZ5HGFUfq-48" value="LossFunctionArtefact&lt;br&gt;&lt;br&gt;by -&amp;gt; RS" style="text;html=1;align=left;verticalAlign=top;whiteSpace=wrap;rounded=0;autosize=1;fontFamily=Lucida Console;fillColor=#f5f5f5;fontColor=#333333;strokeColor=#666666;" parent="1" vertex="1">
          <mxGeometry x="520" y="1114" width="170" height="60" as="geometry" />
        </mxCell>
        <mxCell id="4ErzhL_by6YQZ5HGFUfq-49" value="LossFunctionArtefact&lt;br&gt;&lt;br&gt;by -&amp;gt; RS" style="text;html=1;align=left;verticalAlign=top;whiteSpace=wrap;rounded=0;autosize=1;fontFamily=Lucida Console;fillColor=#f5f5f5;fontColor=#333333;strokeColor=#666666;" parent="1" vertex="1">
          <mxGeometry x="380" y="1444" width="170" height="60" as="geometry" />
        </mxCell>
        <mxCell id="4ErzhL_by6YQZ5HGFUfq-50" value="DataLoaderType&lt;br&gt;&lt;br&gt;by -&amp;gt; RR" style="text;html=1;align=left;verticalAlign=top;whiteSpace=wrap;rounded=0;autosize=1;fontFamily=Lucida Console;fillColor=#f5f5f5;fontColor=#333333;strokeColor=#666666;" parent="1" vertex="1">
          <mxGeometry x="500" y="660" width="120" height="60" as="geometry" />
        </mxCell>
        <mxCell id="4ErzhL_by6YQZ5HGFUfq-51" value="ArtefactType&lt;br&gt;&lt;br&gt;by -&amp;gt; RR" style="text;html=1;align=left;verticalAlign=top;whiteSpace=wrap;rounded=0;autosize=1;fontFamily=Lucida Console;fillColor=#f5f5f5;fontColor=#333333;strokeColor=#666666;" parent="1" vertex="1">
          <mxGeometry x="-200" y="280" width="110" height="60" as="geometry" />
        </mxCell>
      </root>
    </mxGraphModel>
  </diagram>
</mxfile>
